<mxfile host="app.diagrams.net" modified="2022-09-06T14:12:05.876Z" agent="5.0 (Windows)" etag="5Bdq2_KPNH5RHGJ5fmux" version="20.2.8" type="github">
  <diagram id="2tWIJX9bhGefp-meTiPB" name="Page-1">
    <mxGraphModel dx="1017" dy="698" grid="1" gridSize="10" guides="1" tooltips="1" connect="1" arrows="1" fold="1" page="1" pageScale="1" pageWidth="850" pageHeight="1100" math="0" shadow="0">
      <root>
        <mxCell id="0" />
        <mxCell id="1" parent="0" />
        <mxCell id="Z5jafDhBLAki-88YoWzZ-1" value="START" style="ellipse;whiteSpace=wrap;html=1;fillColor=#80FF00;strokeColor=#82b366;" vertex="1" parent="1">
          <mxGeometry x="320" y="200" width="120" height="80" as="geometry" />
        </mxCell>
        <mxCell id="Z5jafDhBLAki-88YoWzZ-2" value="END" style="ellipse;whiteSpace=wrap;html=1;fillColor=#FF0000;" vertex="1" parent="1">
          <mxGeometry x="320" y="810" width="120" height="80" as="geometry" />
        </mxCell>
        <mxCell id="Z5jafDhBLAki-88YoWzZ-3" value="condition" style="rhombus;whiteSpace=wrap;html=1;" vertex="1" parent="1">
          <mxGeometry x="315" y="340" width="130" height="100" as="geometry" />
        </mxCell>
        <mxCell id="Z5jafDhBLAki-88YoWzZ-10" value="Statement to be executed if True." style="rounded=0;whiteSpace=wrap;html=1;" vertex="1" parent="1">
          <mxGeometry x="290" y="570" width="180" height="90" as="geometry" />
        </mxCell>
        <mxCell id="Z5jafDhBLAki-88YoWzZ-12" value="" style="endArrow=classic;html=1;rounded=0;exitX=0.5;exitY=1;exitDx=0;exitDy=0;entryX=0.5;entryY=0;entryDx=0;entryDy=0;" edge="1" parent="1" source="Z5jafDhBLAki-88YoWzZ-1" target="Z5jafDhBLAki-88YoWzZ-3">
          <mxGeometry width="50" height="50" relative="1" as="geometry">
            <mxPoint x="400" y="490" as="sourcePoint" />
            <mxPoint x="450" y="440" as="targetPoint" />
          </mxGeometry>
        </mxCell>
        <mxCell id="Z5jafDhBLAki-88YoWzZ-13" value="Statement to be executed if False" style="rounded=0;whiteSpace=wrap;html=1;" vertex="1" parent="1">
          <mxGeometry x="600" y="570" width="180" height="90" as="geometry" />
        </mxCell>
        <mxCell id="Z5jafDhBLAki-88YoWzZ-18" value="" style="endArrow=classic;html=1;rounded=0;exitX=0.5;exitY=1;exitDx=0;exitDy=0;entryX=0.5;entryY=0;entryDx=0;entryDy=0;" edge="1" parent="1" source="Z5jafDhBLAki-88YoWzZ-3" target="Z5jafDhBLAki-88YoWzZ-10">
          <mxGeometry relative="1" as="geometry">
            <mxPoint x="370" y="460" as="sourcePoint" />
            <mxPoint x="470" y="460" as="targetPoint" />
          </mxGeometry>
        </mxCell>
        <mxCell id="Z5jafDhBLAki-88YoWzZ-19" value="True" style="edgeLabel;resizable=0;html=1;align=center;verticalAlign=middle;fontSize=17;" connectable="0" vertex="1" parent="Z5jafDhBLAki-88YoWzZ-18">
          <mxGeometry relative="1" as="geometry" />
        </mxCell>
        <mxCell id="Z5jafDhBLAki-88YoWzZ-22" value="" style="endArrow=none;html=1;rounded=0;fontSize=17;entryX=1;entryY=0.5;entryDx=0;entryDy=0;" edge="1" parent="1" target="Z5jafDhBLAki-88YoWzZ-3">
          <mxGeometry width="50" height="50" relative="1" as="geometry">
            <mxPoint x="690" y="390" as="sourcePoint" />
            <mxPoint x="450" y="440" as="targetPoint" />
          </mxGeometry>
        </mxCell>
        <mxCell id="Z5jafDhBLAki-88YoWzZ-23" value="" style="endArrow=classic;html=1;rounded=0;fontSize=17;entryX=0.5;entryY=0;entryDx=0;entryDy=0;" edge="1" parent="1" target="Z5jafDhBLAki-88YoWzZ-13">
          <mxGeometry relative="1" as="geometry">
            <mxPoint x="690" y="390" as="sourcePoint" />
            <mxPoint x="470" y="470" as="targetPoint" />
          </mxGeometry>
        </mxCell>
        <mxCell id="Z5jafDhBLAki-88YoWzZ-24" value="False" style="edgeLabel;resizable=0;html=1;align=center;verticalAlign=middle;fontSize=17;" connectable="0" vertex="1" parent="Z5jafDhBLAki-88YoWzZ-23">
          <mxGeometry relative="1" as="geometry" />
        </mxCell>
        <mxCell id="Z5jafDhBLAki-88YoWzZ-25" value="" style="endArrow=none;html=1;rounded=0;fontSize=17;entryX=0.5;entryY=1;entryDx=0;entryDy=0;" edge="1" parent="1" target="Z5jafDhBLAki-88YoWzZ-13">
          <mxGeometry width="50" height="50" relative="1" as="geometry">
            <mxPoint x="690" y="850" as="sourcePoint" />
            <mxPoint x="450" y="570" as="targetPoint" />
          </mxGeometry>
        </mxCell>
        <mxCell id="Z5jafDhBLAki-88YoWzZ-26" value="" style="endArrow=classic;html=1;rounded=0;fontSize=17;entryX=1;entryY=0.5;entryDx=0;entryDy=0;" edge="1" parent="1" target="Z5jafDhBLAki-88YoWzZ-2">
          <mxGeometry width="50" height="50" relative="1" as="geometry">
            <mxPoint x="690" y="850" as="sourcePoint" />
            <mxPoint x="450" y="570" as="targetPoint" />
          </mxGeometry>
        </mxCell>
        <mxCell id="Z5jafDhBLAki-88YoWzZ-27" value="" style="endArrow=classic;html=1;rounded=0;fontSize=17;exitX=0.5;exitY=1;exitDx=0;exitDy=0;entryX=0.5;entryY=0;entryDx=0;entryDy=0;" edge="1" parent="1" source="Z5jafDhBLAki-88YoWzZ-10" target="Z5jafDhBLAki-88YoWzZ-2">
          <mxGeometry width="50" height="50" relative="1" as="geometry">
            <mxPoint x="400" y="620" as="sourcePoint" />
            <mxPoint x="450" y="570" as="targetPoint" />
          </mxGeometry>
        </mxCell>
      </root>
    </mxGraphModel>
  </diagram>
</mxfile>
